<mxfile host="app.diagrams.net" modified="2021-02-02T09:43:43.731Z" agent="5.0 (Macintosh; Intel Mac OS X 10_15_7) AppleWebKit/537.36 (KHTML, like Gecko) Chrome/88.0.4324.96 Safari/537.36" etag="pszvfJIjfGgymM3NfKzp" version="14.2.9" type="github">
  <diagram id="C5RBs43oDa-KdzZeNtuy" name="Page-1">
    <mxGraphModel dx="1033" dy="695" grid="1" gridSize="10" guides="1" tooltips="1" connect="1" arrows="1" fold="1" page="1" pageScale="1" pageWidth="827" pageHeight="1169" math="0" shadow="0">
      <root>
        <mxCell id="WIyWlLk6GJQsqaUBKTNV-0" />
        <mxCell id="WIyWlLk6GJQsqaUBKTNV-1" parent="WIyWlLk6GJQsqaUBKTNV-0" />
        <mxCell id="NsQSK4mrZwuk6-9RbCRj-2" value="" style="edgeStyle=orthogonalEdgeStyle;rounded=0;orthogonalLoop=1;jettySize=auto;html=1;" edge="1" parent="WIyWlLk6GJQsqaUBKTNV-1" source="NsQSK4mrZwuk6-9RbCRj-0" target="NsQSK4mrZwuk6-9RbCRj-1">
          <mxGeometry relative="1" as="geometry" />
        </mxCell>
        <mxCell id="NsQSK4mrZwuk6-9RbCRj-0" value="黏贴" style="rounded=1;whiteSpace=wrap;html=1;fillColor=#e1d5e7;strokeColor=#9673a6;" vertex="1" parent="WIyWlLk6GJQsqaUBKTNV-1">
          <mxGeometry x="250" y="80" width="120" height="60" as="geometry" />
        </mxCell>
        <mxCell id="NsQSK4mrZwuk6-9RbCRj-4" value="" style="edgeStyle=orthogonalEdgeStyle;rounded=0;orthogonalLoop=1;jettySize=auto;html=1;" edge="1" parent="WIyWlLk6GJQsqaUBKTNV-1" source="NsQSK4mrZwuk6-9RbCRj-1" target="NsQSK4mrZwuk6-9RbCRj-3">
          <mxGeometry relative="1" as="geometry" />
        </mxCell>
        <mxCell id="NsQSK4mrZwuk6-9RbCRj-1" value="document 监听 paste event" style="whiteSpace=wrap;html=1;rounded=1;" vertex="1" parent="WIyWlLk6GJQsqaUBKTNV-1">
          <mxGeometry x="450" y="80" width="120" height="60" as="geometry" />
        </mxCell>
        <mxCell id="NsQSK4mrZwuk6-9RbCRj-3" value="分析 clipboard&amp;nbsp; 的&lt;br&gt;types" style="whiteSpace=wrap;html=1;rounded=1;" vertex="1" parent="WIyWlLk6GJQsqaUBKTNV-1">
          <mxGeometry x="650" y="80" width="120" height="60" as="geometry" />
        </mxCell>
        <mxCell id="NsQSK4mrZwuk6-9RbCRj-8" value="" style="edgeStyle=orthogonalEdgeStyle;rounded=0;orthogonalLoop=1;jettySize=auto;html=1;" edge="1" parent="WIyWlLk6GJQsqaUBKTNV-1" target="NsQSK4mrZwuk6-9RbCRj-7">
          <mxGeometry relative="1" as="geometry">
            <mxPoint x="770" y="110" as="sourcePoint" />
          </mxGeometry>
        </mxCell>
        <mxCell id="NsQSK4mrZwuk6-9RbCRj-10" value="否" style="edgeStyle=orthogonalEdgeStyle;rounded=0;orthogonalLoop=1;jettySize=auto;html=1;" edge="1" parent="WIyWlLk6GJQsqaUBKTNV-1" source="NsQSK4mrZwuk6-9RbCRj-7" target="NsQSK4mrZwuk6-9RbCRj-9">
          <mxGeometry relative="1" as="geometry" />
        </mxCell>
        <mxCell id="NsQSK4mrZwuk6-9RbCRj-12" value="是" style="edgeStyle=orthogonalEdgeStyle;rounded=0;orthogonalLoop=1;jettySize=auto;html=1;" edge="1" parent="WIyWlLk6GJQsqaUBKTNV-1" source="NsQSK4mrZwuk6-9RbCRj-7" target="NsQSK4mrZwuk6-9RbCRj-11">
          <mxGeometry relative="1" as="geometry" />
        </mxCell>
        <mxCell id="NsQSK4mrZwuk6-9RbCRj-7" value="&lt;article class=&quot;4ever-article&quot;&gt;&lt;p style=&quot;text-align: left ; margin-left: 0px&quot;&gt;&amp;nbsp;是否有 application/x-alidocs-presentation&lt;/p&gt;&lt;/article&gt;" style="rhombus;whiteSpace=wrap;html=1;rounded=1;" vertex="1" parent="WIyWlLk6GJQsqaUBKTNV-1">
          <mxGeometry x="827" y="65" width="263" height="90" as="geometry" />
        </mxCell>
        <mxCell id="NsQSK4mrZwuk6-9RbCRj-9" value="进入 text/html, text/plain 的处理逻辑" style="ellipse;whiteSpace=wrap;html=1;rounded=1;" vertex="1" parent="WIyWlLk6GJQsqaUBKTNV-1">
          <mxGeometry x="1241.5" y="70" width="120" height="80" as="geometry" />
        </mxCell>
        <mxCell id="NsQSK4mrZwuk6-9RbCRj-14" value="是" style="edgeStyle=orthogonalEdgeStyle;rounded=0;orthogonalLoop=1;jettySize=auto;html=1;" edge="1" parent="WIyWlLk6GJQsqaUBKTNV-1" source="NsQSK4mrZwuk6-9RbCRj-11" target="NsQSK4mrZwuk6-9RbCRj-13">
          <mxGeometry relative="1" as="geometry" />
        </mxCell>
        <mxCell id="NsQSK4mrZwuk6-9RbCRj-17" value="否" style="edgeStyle=orthogonalEdgeStyle;rounded=0;orthogonalLoop=1;jettySize=auto;html=1;entryX=1;entryY=0.5;entryDx=0;entryDy=0;" edge="1" parent="WIyWlLk6GJQsqaUBKTNV-1" source="NsQSK4mrZwuk6-9RbCRj-11" target="NsQSK4mrZwuk6-9RbCRj-15">
          <mxGeometry relative="1" as="geometry">
            <Array as="points">
              <mxPoint x="1090" y="270" />
              <mxPoint x="1090" y="560" />
            </Array>
          </mxGeometry>
        </mxCell>
        <mxCell id="NsQSK4mrZwuk6-9RbCRj-11" value="type 是 slide" style="whiteSpace=wrap;html=1;rounded=1;" vertex="1" parent="WIyWlLk6GJQsqaUBKTNV-1">
          <mxGeometry x="898.5" y="250" width="120" height="60" as="geometry" />
        </mxCell>
        <mxCell id="NsQSK4mrZwuk6-9RbCRj-16" value="" style="edgeStyle=orthogonalEdgeStyle;rounded=0;orthogonalLoop=1;jettySize=auto;html=1;" edge="1" parent="WIyWlLk6GJQsqaUBKTNV-1" source="NsQSK4mrZwuk6-9RbCRj-13" target="NsQSK4mrZwuk6-9RbCRj-15">
          <mxGeometry relative="1" as="geometry" />
        </mxCell>
        <mxCell id="NsQSK4mrZwuk6-9RbCRj-13" value="进入 slide 黏贴逻辑" style="whiteSpace=wrap;html=1;rounded=1;" vertex="1" parent="WIyWlLk6GJQsqaUBKTNV-1">
          <mxGeometry x="898.5" y="390" width="120" height="60" as="geometry" />
        </mxCell>
        <mxCell id="NsQSK4mrZwuk6-9RbCRj-19" value="" style="edgeStyle=orthogonalEdgeStyle;rounded=0;orthogonalLoop=1;jettySize=auto;html=1;" edge="1" parent="WIyWlLk6GJQsqaUBKTNV-1" source="NsQSK4mrZwuk6-9RbCRj-15">
          <mxGeometry relative="1" as="geometry">
            <mxPoint x="958.5" y="660" as="targetPoint" />
          </mxGeometry>
        </mxCell>
        <mxCell id="NsQSK4mrZwuk6-9RbCRj-15" value="进入插件黏贴逻辑" style="whiteSpace=wrap;html=1;rounded=1;" vertex="1" parent="WIyWlLk6GJQsqaUBKTNV-1">
          <mxGeometry x="898.5" y="530" width="120" height="60" as="geometry" />
        </mxCell>
        <mxCell id="NsQSK4mrZwuk6-9RbCRj-20" value="e.preventDefault()" style="rounded=0;whiteSpace=wrap;html=1;" vertex="1" parent="WIyWlLk6GJQsqaUBKTNV-1">
          <mxGeometry x="898.5" y="660" width="120" height="60" as="geometry" />
        </mxCell>
      </root>
    </mxGraphModel>
  </diagram>
</mxfile>
